<?xml version="1.0" encoding="utf-8"?>
<!-- Generator: Adobe Illustrator 21.1.0, SVG Export Plug-In . SVG Version: 6.00 Build 0)  -->
<svg version="1.1" id="레이어_1" xmlns="http://www.w3.org/2000/svg" xmlns:xlink="http://www.w3.org/1999/xlink" x="0px"
	 y="0px" viewBox="0 0 236.3 163.1" style="enable-background:new 0 0 236.3 163.1;" xml:space="preserve">
<style type="text/css">
	.st0{fill:#FFFFFF;}
</style>
<g>
	<g>
		<path class="st0" d="M95.6,149h-2.3c-0.1,0-0.2,0.1-0.2,0.1l-3.4,9.5l-3.2-9.5c0-0.1-0.1-0.1-0.2-0.1h-2.3c-0.1,0-0.2,0.1-0.2,0.2
			v11.5c0,0.1,0.1,0.2,0.2,0.2h1.5c0.1,0,0.2-0.1,0.2-0.2v-8.9l3.2,8.9c0,0.1,0.1,0.1,0.2,0.1h1.4c0.1,0,0.2-0.1,0.2-0.1l3.2-9v9
			c0,0.1,0.1,0.2,0.2,0.2h1.5c0.1,0,0.2-0.1,0.2-0.2v-11.5C95.8,149.1,95.7,149,95.6,149z"/>
		<path class="st0" d="M102.1,149h-1.4c-0.1,0-0.2,0.1-0.2,0.2v11.5c0,0.1,0.1,0.2,0.2,0.2h1.4c0.1,0,0.2-0.1,0.2-0.2v-11.5
			C102.3,149.1,102.3,149,102.1,149z"/>
		<path class="st0" d="M114.2,159.5h-5.2v-10.3c0-0.1-0.1-0.2-0.2-0.2h-1.4c-0.1,0-0.2,0.1-0.2,0.2v11.5c0,0.1,0.1,0.2,0.2,0.2h6.8
			c0.1,0,0.2-0.1,0.2-0.2v-1C114.4,159.6,114.3,159.5,114.2,159.5z"/>
		<path class="st0" d="M122.8,149.1c0-0.1-0.1-0.1-0.2-0.1h-1.4c-0.1,0-0.2,0.1-0.2,0.1l-4,11.5c0,0.1,0,0.1,0,0.2
			c0,0.1,0.1,0.1,0.2,0.1h1.4c0.1,0,0.2-0.1,0.2-0.1l1.2-3.5h4.1l1,3.5c0,0.1,0.1,0.1,0.2,0.1h1.4h0h0c0.1,0,0.2-0.1,0.2-0.2
			c0,0,0-0.1,0-0.1L122.8,149.1z M123.5,155.9h-3.2l1.5-4.9L123.5,155.9z"/>
		<path class="st0" d="M138.6,149h-1.4c-0.1,0-0.2,0.1-0.2,0.2v8.9l-1.8-3.6l-3.1-5.4c0-0.1-0.1-0.1-0.2-0.1h-1.7
			c-0.1,0-0.2,0.1-0.2,0.2v11.5c0,0.1,0.1,0.2,0.2,0.2h1.4c0.1,0,0.2-0.1,0.2-0.2v-9.1l5.1,9.2c0,0.1,0.1,0.1,0.2,0.1h1.6
			c0.1,0,0.2-0.1,0.2-0.2v-11.5C138.8,149.1,138.7,149,138.6,149z"/>
		<path class="st0" d="M151.4,150.6c-0.6-1.1-1.8-1.7-3.7-1.8c0,0-0.1,0-0.1,0c-1.5,0.1-2.5,0.4-3.1,1.1c-0.6,0.7-1,1.4-1.2,2.2
			c-0.1,0.3-0.1,0.6-0.2,1c0,0.3,0,0.6,0,0.9c0,0.1,0,0.2,0,0.3l0,0.1c0,0,0,0.1,0,0.1c0,0.1,0,0.2,0,0.2c0,0.1,0,0.1,0,0.2
			c0,0.3,0,0.7,0,1.1c0,0.4,0,0.8,0.1,1.2c0.1,1,0.5,1.9,1.1,2.8c0.6,0.9,1.7,1.3,3.2,1.3c1.6,0,2.8-0.4,3.4-1.2
			c0.6-0.8,1-1.7,1.2-2.7c0.1-0.4,0.1-0.8,0.1-1.2c0-0.4,0-0.8,0-1.1C152.3,153.1,152,151.7,151.4,150.6z M147.8,159.9
			C147.7,159.9,147.7,159.9,147.8,159.9c-0.1,0-0.1,0-0.2,0c-0.9,0-1.5-0.4-1.9-1c-0.4-0.6-0.7-1.3-0.8-2.1c-0.1-0.4-0.1-0.7-0.1-1
			c0-0.3,0-0.7,0-0.9c0-1.3,0.2-2.5,0.6-3.4c0.3-0.9,1.1-1.3,2.3-1.3c0,0,0,0,0.1,0c0.9,0.1,1.5,0.4,1.9,0.9
			c0.4,0.5,0.7,1.1,0.8,1.7c0.1,0.4,0.1,0.7,0.1,1c0,0.3,0,0.6,0,0.9v0.9c0,0.3,0,0.5,0,0.8c0,0.3,0,0.6-0.1,0.9
			c-0.1,0.7-0.4,1.4-0.8,2C149.4,159.7,148.7,159.9,147.8,159.9z"/>
	</g>
	<g>
		<g>
			<g>
				<polygon class="st0" points="7.7,114.4 11.4,114.4 16.9,126.7 22.4,114.4 26.1,114.4 29.3,136 23.9,136 22,124.3 16.9,136 
					14.6,136 9.6,125.1 7.7,136 3.8,135.9 				"/>
				<polygon class="st0" points="38.3,114.4 38.3,136 49.2,136 49.2,134.5 43.7,134.5 43.7,126 49.2,126 49.2,124.3 43.8,124.3 
					43.8,117.5 49.2,117.5 49.2,114.4 				"/>
				<polygon class="st0" points="59.6,114.4 59.6,116.7 64.2,116.7 64.2,136 68.9,136 68.9,116.7 73.5,116.7 73.5,114.4 				"/>
				<path class="st0" d="M93.2,125.1c4.3-0.8,4.2-5.3,4.2-5.3c0.2-5-4.6-5.4-4.6-5.4h-8.4V136h4.6v-7.7h0.8l4.7,7.7h5.2L93.2,125.1z
					 M88.9,123.7v-6.9c0,0,4.7-0.2,4.7,3.5C93.5,124.4,88.9,123.7,88.9,123.7z"/>
				<path class="st0" d="M118.1,114.4c-5.5,0-10,4.8-10,10.8c0,6,4.5,10.8,10,10.8c5.5,0,10-4.8,10-10.8
					C128.1,119.2,123.6,114.4,118.1,114.4z M118.2,133.8c-2.8,0-5-3.8-5-8.5c0-4.7,2.2-8.5,5-8.5c2.8,0,5,3.8,5,8.5
					C123.2,130,120.9,133.8,118.2,133.8z"/>
				<path class="st0" d="M154.7,129.9L154.7,129.9c-1,1.9-2.7,3.1-4.5,3.1c-3.1,0-5.7-3.6-5.7-8.1c0-4.5,2.5-8.1,5.7-8.1
					c1.8,0,3.4,1.2,4.5,3.1v0h0.9v-3.2c-1.7-1.4-3.9-2.3-6.2-2.3c-5.6,0-10.1,4.8-10.1,10.8c0,6,4.5,10.8,10.1,10.8
					c2.3,0,5-1.1,6.2-2.9v-3.3H154.7z"/>
				<rect x="170.5" y="114.4" class="st0" width="4.6" height="21.6"/>
				<polygon class="st0" points="190.1,114.4 190.1,116.7 194.8,116.7 194.8,136 199.4,136 199.4,116.7 204.1,116.7 204.1,114.4 
									"/>
				<polygon class="st0" points="215.3,114.4 222.1,124.9 222.1,136 226.8,136 226.8,124 232.2,114.4 229.2,114.4 224.9,122.1 
					219.6,114.4 				"/>
			</g>
		</g>
	</g>
	<g>
		<g>
			<g>
				<path class="st0" d="M118,18.2c-18.7,0-33.8,15.1-33.8,33.8c0,18.7,15.2,33.8,33.8,33.8c18.7,0,33.8-15.2,33.8-33.8
					C151.8,33.4,136.7,18.2,118,18.2z M118.1,84c-17.7,0-32-14.3-32-32c0-17.7,14.3-32,32-32c17.7,0,32,14.3,32,32
					C150.2,69.7,135.8,84,118.1,84z"/>
				<path class="st0" d="M118,2.8c-27.2,0-49.3,22.1-49.3,49.3c0,27.2,22.1,49.3,49.3,49.3c27.2,0,49.3-22.1,49.3-49.3
					C167.3,24.8,145.2,2.8,118,2.8z M118.1,99.6c-26.2,0-47.4-21.2-47.4-47.4c0-26.2,21.2-47.4,47.4-47.4
					c26.2,0,47.4,21.2,47.4,47.4C165.5,78.4,144.3,99.6,118.1,99.6z"/>
			</g>
			<path class="st0" d="M142.4,72.5c-7.4-25.5-0.5-41.4-0.5-41.4l-13.7,0.1c0,0-1.5,8.7-10,12.6c-8.5-3.9-10.5-12.6-10.5-12.6
				l-13.7,0.1c0,0,7,15.8-0.1,41.4l15.5-0.1c0,0-2.8-10.2,0.9-16.4c0,0,3.9,1.4,6.3,10.5l1.6,0l1.4,0c2.3-9.1,6.2-10.6,6.2-10.6
				c3.7,6.2,1.1,16.4,1.1,16.4L142.4,72.5z"/>
			<g>
				<polygon class="st0" points="73.8,41.3 74.3,39.9 79.7,39.3 75.7,35.7 76.2,34.2 84.9,35.8 84.2,37.9 79.5,37.1 83.3,40.5 
					83,41.4 78.2,41.9 82.1,44.1 81.6,45.6 				"/>
				<polygon class="st0" points="88,31.7 80.4,26.6 82.9,22.7 83.5,23.1 82.2,25 85.2,27 86.5,25.1 87.1,25.5 85.8,27.4 88.2,29 
					89.5,27.1 90.6,27.9 				"/>
				<polygon class="st0" points="88.7,17.9 89.3,18.7 90.9,17.6 95.6,24.3 97.2,23.2 92.5,16.4 94.2,15.3 93.6,14.5 				"/>
				<path class="st0" d="M104.8,13.9c1.6-0.9,1-2.7,1-2.7c-0.6-2.1-2.6-1.6-2.6-1.6l-3.4,1.1l2.9,8.8l1.9-0.6l-1-3.1l0.3-0.1
					l2.9,2.5l2.1-0.7L104.8,13.9z M102.9,13.9l-0.9-2.8c0,0,1.9-0.7,2.4,0.8C104.8,13.5,102.9,13.9,102.9,13.9z"/>
				<path class="st0" d="M118,7c-2.6,0-4.8,2.1-4.8,4.6c0,2.5,2.1,4.6,4.8,4.6c2.6,0,4.8-2.1,4.8-4.6C122.7,9.1,120.6,7,118,7z
					 M118,15.3c-1.3,0-2.4-1.6-2.4-3.6c0-2,1.1-3.6,2.4-3.6c1.3,0,2.4,1.6,2.4,3.6C120.4,13.7,119.3,15.3,118,15.3z"/>
				<path class="st0" d="M134.3,17.3L134.3,17.3c-0.8,0.4-1.8,0.5-2.5,0c-1.2-0.8-1.4-2.7-0.4-4.4c1-1.6,2.9-2.3,4.1-1.5
					c0.7,0.5,1.1,1.3,1,2.2l0,0l0.3,0.2l0.7-1.1c-0.3-0.9-1-1.8-1.9-2.4c-2.2-1.4-5.1-0.8-6.4,1.4c-1.4,2.1-0.7,5,1.5,6.4
					c0.9,0.6,2.2,0.8,3.1,0.5l0.8-1.2L134.3,17.3z"/>
				<polygon class="st0" points="141.5,24.3 147.2,17.1 145.7,15.9 139.9,23.1 				"/>
				<polygon class="st0" points="153.3,24.1 152.4,24.7 153.6,26.3 147,31.1 148.1,32.7 154.8,27.9 155.9,29.5 156.8,28.9 				"/>
				<polygon class="st0" points="160.3,36.3 156.7,40.2 152.2,41.5 152.7,43.4 157.6,42.1 162.2,43.2 161.8,42 158.2,41.1 160.8,38 
									"/>
				<polygon class="st0" points="161.9,62.8 161.4,64.3 156,64.8 160,68.5 159.5,69.9 150.8,68.4 151.5,66.3 156.2,67.1 152.4,63.6 
					152.7,62.7 157.5,62.2 153.6,60.1 154.1,58.6 				"/>
				<polygon class="st0" points="147.7,72.5 155.3,77.6 152.8,81.4 152.2,81.1 153.5,79.2 150.5,77.1 149.2,79.1 148.6,78.6 
					149.9,76.7 147.5,75.1 146.2,77 145.1,76.3 				"/>
				<polygon class="st0" points="147,86.3 146.4,85.5 144.8,86.6 140.1,79.8 138.5,81 143.2,87.7 141.5,88.8 142.1,89.6 				"/>
				<path class="st0" d="M130.9,90.3c-1.6,0.9-1,2.7-1,2.7c0.6,2,2.6,1.6,2.6,1.6l3.4-1.1l-2.9-8.8l-1.9,0.6l1,3.1l-0.3,0.1L129,86
					l-2.1,0.7L130.9,90.3z M132.9,90.3l0.9,2.8c0,0-1.9,0.7-2.4-0.8C130.9,90.6,132.9,90.3,132.9,90.3z"/>
				<path class="st0" d="M117.7,97.1c2.6,0,4.8-2.1,4.8-4.6c0-2.5-2.1-4.6-4.8-4.6c-2.6,0-4.8,2.1-4.8,4.6
					C113,95.1,115.1,97.1,117.7,97.1z M117.7,88.8c1.3,0,2.4,1.6,2.4,3.6c0,2-1.1,3.6-2.4,3.6c-1.3,0-2.4-1.6-2.4-3.6
					C115.3,90.5,116.4,88.8,117.7,88.8z"/>
				<path class="st0" d="M101.4,86.9L101.4,86.9c0.8-0.4,1.8-0.5,2.5,0c1.2,0.8,1.4,2.7,0.4,4.3c-1,1.6-2.9,2.3-4.1,1.5
					c-0.7-0.5-1.1-1.3-1-2.2l0,0l-0.3-0.2L98,91.4c0.3,0.9,1,1.8,1.9,2.4c2.2,1.4,5.1,0.8,6.4-1.4c1.4-2.1,0.7-5-1.5-6.4
					c-0.9-0.6-2.2-0.8-3.1-0.5l-0.8,1.2L101.4,86.9z"/>
				<polygon class="st0" points="94.2,79.9 88.5,87.1 90,88.3 95.8,81.1 				"/>
				<polygon class="st0" points="82.5,80.1 83.3,79.5 82.1,77.9 88.7,73 87.6,71.4 80.9,76.3 79.8,74.7 79,75.2 				"/>
				<polygon class="st0" points="75.4,67.9 79,63.9 83.5,62.7 83,60.8 78.1,62.1 73.5,60.9 73.9,62.2 77.5,63.1 74.9,66.1 				"/>
				<ellipse class="st0" cx="76.8" cy="52.1" rx="3" ry="3.1"/>
				<ellipse class="st0" cx="159.2" cy="52.1" rx="3" ry="3.1"/>
			</g>
		</g>
	</g>
</g>
</svg>
