<?xml version="1.0" encoding="utf-8"?>
<!-- Generator: Adobe Illustrator 21.1.0, SVG Export Plug-In . SVG Version: 6.00 Build 0)  -->
<svg version="1.1" id="레이어_1" xmlns="http://www.w3.org/2000/svg" xmlns:xlink="http://www.w3.org/1999/xlink" x="0px"
	 y="0px" viewBox="0 0 397.1 37.6" style="enable-background:new 0 0 397.1 37.6;" xml:space="preserve">
<style type="text/css">
	.st0{fill:#FFFFFF;}
</style>
<g>
	<g>
		<g>
			<g>
				<polygon class="st0" points="6.8,0 13.3,0 22.9,21.4 32.3,0 38.8,0 44.4,37.6 35,37.6 31.7,17.2 22.9,37.6 18.8,37.6 10.2,18.7 
					6.8,37.6 0,37.5 				"/>
				<polygon class="st0" points="60.1,0 60.1,37.6 78.9,37.6 78.9,35 69.4,35 69.4,20.1 78.9,20.1 78.9,17.2 69.5,17.2 69.5,5.4 
					78.9,5.4 78.9,0 				"/>
				<polygon class="st0" points="97,0 97,4.1 105,4.1 105,37.6 113.2,37.6 113.2,4.1 121.2,4.1 121.2,0 				"/>
				<path class="st0" d="M155.4,18.7c7.4-1.5,7.3-9.2,7.3-9.2c0.3-8.7-8-9.4-8-9.4H140v37.6h8V24.2h1.4l8.2,13.4h9.1L155.4,18.7z
					 M147.9,16.1v-12c0,0,8.1-0.3,8.1,6C156.1,17.4,147.9,16.1,147.9,16.1z"/>
				<path class="st0" d="M198.8,0c-9.6,0-17.3,8.4-17.3,18.8s7.8,18.8,17.3,18.8c9.6,0,17.3-8.4,17.3-18.8S208.4,0,198.8,0z
					 M198.9,33.8c-4.8,0-8.7-6.6-8.7-14.8s3.9-14.8,8.7-14.8s8.7,6.6,8.7,14.8C207.6,27.1,203.7,33.8,198.9,33.8z"/>
				<path class="st0" d="M262.4,26.9L262.4,26.9c-1.8,3.3-4.6,5.5-7.8,5.5c-5.5,0-9.9-6.3-9.9-14.1s4.4-14.1,9.9-14.1
					c3.1,0,5.9,2.1,7.8,5.3l0,0h1.5V3.9c-3-2.5-6.7-3.9-10.8-3.9c-9.7,0-17.6,8.4-17.6,18.8s7.9,18.8,17.6,18.8c4,0,8.7-2,10.8-5
					v-5.7C263.9,26.9,262.4,26.9,262.4,26.9z"/>
				<rect x="289.9" class="st0" width="8" height="37.6"/>
				<polygon class="st0" points="323.9,0 323.9,4.1 332.1,4.1 332.1,37.6 340.1,37.6 340.1,4.1 348.2,4.1 348.2,0 				"/>
				<polygon class="st0" points="367.7,0 379.6,18.3 379.6,37.6 387.7,37.6 387.7,16.7 397.1,0 391.9,0 384.4,13.4 375.1,0 				"/>
			</g>
		</g>
	</g>
</g>
</svg>
